<svg xmlns="http://www.w3.org/2000/svg" viewBox="0 0 32 32" xml:space="preserve" enable-background="new 0 0 32 32"><g id="Layer_6"><circle cx="16" cy="20.667" r="8.333" fill="#ffffff" class="fill-cdf6f9"></circle><path
        d="m16.383 16.901 1.066 1.706 1.952.486a.452.452 0 0 1 .237.728l-1.293 1.541.141 2.007a.451.451 0 0 1-.619.45L16 23.065l-1.865.754a.45.45 0 0 1-.619-.45l.141-2.007-1.293-1.541a.451.451 0 0 1 .237-.728l1.952-.486 1.066-1.706a.45.45 0 0 1 .764 0z"
        fill="#ffffff" class="fill-ffffff"></path><path
        d="m24.5 4.5-3.23 9.71C19.83 13.03 18 12.33 16 12.33s-3.83.7-5.27 1.88L7.5 4.5C7.25 3.76 7.8 3 8.58 3h14.84c.78 0 1.33.76 1.08 1.5z"
        fill="#ffffff" class="fill-cdf6f9"></path><path
        d="m19.21 3-1.14 9.59c-.66-.17-1.36-.26-2.07-.26s-1.41.09-2.07.26L12.79 3h6.42z" fill="#ffffff"
        class="fill-ffffff"></path><path
        d="m19.618 18.22-1.6-.398-.872-1.397c-.498-.796-1.795-.796-2.293 0l-.872 1.397-1.6.398a1.341 1.341 0 0 0-.958.894 1.34 1.34 0 0 0 .25 1.286l1.06 1.262-.115 1.644c-.033.468.174.912.554 1.188a1.346 1.346 0 0 0 1.3.159L16 24.035l1.527.617c.435.176.922.117 1.301-.159.38-.276.587-.72.554-1.188l-.115-1.644 1.06-1.262a1.34 1.34 0 0 0 .25-1.286 1.343 1.343 0 0 0-.959-.893zm-1.964 2.563a.898.898 0 0 0-.208.642l.09 1.29-1.199-.485a.91.91 0 0 0-.674 0l-1.199.485.09-1.29a.898.898 0 0 0-.208-.642l-.831-.99 1.255-.313a.903.903 0 0 0 .546-.397L16 17.987l.685 1.097c.124.198.319.34.546.397l1.255.313-.832.989z"
        fill="#000000" class="fill-1a83a8"></path><path
        d="M25.072 2.948a2.048 2.048 0 0 0-1.657-.848H8.585c-.655 0-1.274.317-1.657.848a2.047 2.047 0 0 0-.282 1.84l3.047 9.154a9.202 9.202 0 0 0-2.927 6.725c0 5.091 4.143 9.233 9.233 9.233s9.233-4.142 9.233-9.233a9.198 9.198 0 0 0-2.927-6.725l3.047-9.154a2.04 2.04 0 0 0-.28-1.84zM16 11.434a9.15 9.15 0 0 0-1.29.101L13.803 3.9h4.394l-.907 7.635a9.15 9.15 0 0 0-1.29-.101zM8.354 4.219c-.033-.097 0-.172.034-.218s.093-.101.197-.101h3.406l.958 8.063a9.226 9.226 0 0 0-1.743.828L8.354 4.219zm15.079 16.448c0 4.099-3.334 7.434-7.433 7.434s-7.433-3.335-7.433-7.434 3.334-7.433 7.433-7.433 7.433 3.334 7.433 7.433zm.213-16.448-2.853 8.571a9.197 9.197 0 0 0-1.743-.828l.959-8.062h3.406c.104 0 .164.055.197.101s.067.121.034.218z"
        fill="#000000" class="fill-1a83a8"></path></g></svg>