<svg xmlns="http://www.w3.org/2000/svg" viewBox="0 0 32 32" xml:space="preserve" enable-background="new 0 0 32 32"><g id="Layer_24"><path d="M24.959 14.612h-7.572a.881.881 0 0 1-.881-.881v-.288a3.772 3.772 0 0 1 3.772-3.772h1.789a3.772 3.772 0 0 1 3.772 3.772v.288a.879.879 0 0 1-.88.881z" fill="#ffffff" class="fill-cdf6f9"></path><circle
        cx="21.173" cy="6.335" r="3.335" fill="#ffffff" class="fill-cdf6f9"></circle><path
        d="M8.94 18.25v9.41c0 .74-.6 1.34-1.34 1.34H5.33c-1.07 0-1.94-.87-1.94-1.94v-8.21c0-1.07.87-1.94 1.94-1.94H7.6c.74 0 1.34.6 1.34 1.34z"
        fill="#ffffff" class="fill-cdf6f9"></path><path
        d="m27.95 23.53-2.51 2.4c-.74.72-1.66 1.21-2.66 1.44l-4.6 1.06c-.87.2-1.78.19-2.65-.03l-6.59-1.66V19.8l2.09-1.41a5.627 5.627 0 0 1 4.35-.86l4.08.85c1 .21 1.71 1.1 1.71 2.12a2.153 2.153 0 0 1-2.16 2.16h1.52c.42 0 .83-.12 1.18-.35l3.46-2.26c.87-.57 2.03-.43 2.75.33l.1.11c.81.86.78 2.22-.07 3.04z"
        fill="#ffffff" class="fill-ffffff"></path><path
        d="M17.387 15.513h7.572c.982 0 1.781-.799 1.781-1.781v-.288c0-1.809-1.045-3.364-2.552-4.14a4.22 4.22 0 0 0 1.221-2.969A4.24 4.24 0 0 0 21.173 2.1a4.24 4.24 0 0 0-4.235 4.235c0 1.156.468 2.203 1.22 2.968-1.508.776-2.552 2.331-2.552 4.14v.288c0 .983.799 1.782 1.781 1.782zM21.173 3.9c1.343 0 2.436 1.092 2.436 2.435s-1.093 2.436-2.436 2.436-2.435-1.093-2.435-2.436S19.83 3.9 21.173 3.9zm-3.767 9.543a2.875 2.875 0 0 1 2.872-2.872h1.789a2.875 2.875 0 0 1 2.872 2.872v.269l-7.533.02v-.289zM28.676 19.873l-.104-.111a3.063 3.063 0 0 0-3.896-.461l-2.657 1.732c.031-.175.054-.352.054-.535a3.075 3.075 0 0 0-2.433-2.995l-4.08-.856a6.598 6.598 0 0 0-5.042.996l-.692.471a2.235 2.235 0 0 0-2.223-2.104H5.335a2.848 2.848 0 0 0-2.844 2.845v8.202a2.848 2.848 0 0 0 2.844 2.845h2.269a2.232 2.232 0 0 0 2.214-2.015l5.487 1.385a6.596 6.596 0 0 0 3.078.034l4.604-1.057a6.575 6.575 0 0 0 3.08-1.664l2.503-2.404a3.072 3.072 0 0 0 .106-4.308zm-20.635 7.79a.437.437 0 0 1-.437.437H5.335a1.045 1.045 0 0 1-1.044-1.044v-8.202c0-.576.469-1.044 1.044-1.044h2.269c.241 0 .437.195.437.437v9.416zm19.281-4.781-2.502 2.403a4.769 4.769 0 0 1-2.236 1.209l-4.604 1.057a4.789 4.789 0 0 1-2.233-.025L9.84 26.034V20.28l1.691-1.15a4.797 4.797 0 0 1 3.659-.723l4.081.856a1.261 1.261 0 0 1-.259 2.494h-2.814a.9.9 0 0 0 0 1.8h4.333c.594 0 1.171-.172 1.671-.497l3.456-2.253a1.26 1.26 0 0 1 1.602.187l.104.111a1.265 1.265 0 0 1-.042 1.777z"
        fill="#000000" class="fill-1a83a8"></path></g></svg>