<svg xmlns="http://www.w3.org/2000/svg" viewBox="0 0 32 32" xml:space="preserve" enable-background="new 0 0 32 32"><g id="Layer_16"><path d="M24.413 29H7.587a2.036 2.036 0 0 1-2.036-2.036v-.311a8.717 8.717 0 0 1 8.717-8.717h3.466a8.717 8.717 0 0 1 8.717 8.717v.311A2.038 2.038 0 0 1 24.413 29z" fill="#ffffff" class="fill-cdf6f9"></path><circle
        cx="16" cy="10.468" r="7.468" fill="#ffffff" class="fill-cdf6f9"></circle><path
        d="M20.577 17.465c2.28-1.497 3.792-4.072 3.792-6.997C24.368 5.854 20.614 2.1 16 2.1s-8.368 3.754-8.368 8.368a8.361 8.361 0 0 0 3.792 6.997c-3.919 1.216-6.774 4.874-6.774 9.188v.312a2.941 2.941 0 0 0 2.938 2.937h16.826a2.941 2.941 0 0 0 2.938-2.937v-.312c-.001-4.314-2.856-7.973-6.775-9.188zM9.433 10.468C9.433 6.846 12.379 3.9 16 3.9s6.567 2.946 6.567 6.568-2.946 6.567-6.567 6.567-6.567-2.946-6.567-6.567zM25.55 26.964c0 .627-.51 1.136-1.137 1.136H7.587a1.137 1.137 0 0 1-1.137-1.136v-.312c0-4.311 3.506-7.816 7.816-7.816h3.467c4.311 0 7.816 3.506 7.816 7.816v.312z"
        fill="#000000" class="fill-1a83a8"></path><path
        d="M19.329 13.289a.901.901 0 0 0-1.379-1.158c-.969 1.154-2.932 1.154-3.9 0a.9.9 0 1 0-1.379 1.158c.828.986 2.041 1.551 3.329 1.551s2.501-.566 3.329-1.551z"
        fill="#000000" class="fill-1a83a8"></path></g></svg>